G04 ================== begin FILE IDENTIFICATION RECORD ==================*
G04 Layout Name:  D:/works/projects/TBag/cadence/TBagCoreBoard.brd*
G04 Film Name:    BOTTOM*
G04 File Format:  Gerber RS274X*
G04 File Origin:  Cadence Allegro 16.6-P004*
G04 Origin Date:  Mon Mar 02 00:06:36 2015*
G04 *
G04 Layer:  ETCH/BOTTOM*
G04 Layer:  PIN/BOTTOM*
G04 Layer:  VIA CLASS/BOTTOM*
G04 *
G04 Offset:    (0.0000 0.0000)*
G04 Mirror:    No*
G04 Mode:      Positive*
G04 Rotation:  0*
G04 FullContactRelief:  No*
G04 UndefLineWidth:     0.3000*
G04 ================== end FILE IDENTIFICATION RECORD ====================*
%FSLAX35Y35*MOMM*%
%IR0*IPPOS*OFA0.00000B0.00000*MIA0B0*SFA1.00000B1.00000*%
%AMMACRO13*
4,1,12,2.6,.5,
1.1,.5,
.6,1.,
-.6,1.,
-1.1,.5,
-2.6,.5,
-2.6,-.5,
-1.1,-.5,
-.6,-1.,
.6,-1.,
1.1,-.5,
2.6,-.5,
2.6,.5,
0.0*
%
%ADD13MACRO13*%
%ADD10R,1.5X.7*%
%ADD18R,1.15X.6*%
%ADD17R,1.8X.7*%
%ADD11C,.5*%
%ADD21R,1.05X1.*%
%ADD22R,2.2X1.05*%
%ADD14C,2.*%
%ADD20C,1.2*%
%ADD12R,1.83X1.12*%
%ADD19R,.35X.85*%
%ADD15R,.95X.9*%
%ADD16R,.9X.95*%
%ADD23C,.2*%
%ADD24C,.35*%
%ADD25C,.254*%
G75*
%LPD*%
G75*
G54D10*
X137580Y769480D03*
Y1069480D03*
X140120Y1871840D03*
Y2171840D03*
X507580Y769480D03*
Y1069480D03*
X510120Y1871840D03*
Y2171840D03*
G54D20*
X2706770Y2310370D03*
X3456770D03*
G54D11*
G01X324550Y768010D02*
X251750D01*
X250280Y769480D01*
X137580D01*
G01X373290Y1431800D02*
Y1369090D01*
X372080Y1367880D01*
Y1189100D01*
X252460Y1069480D01*
X137580D01*
G01X375820Y1070000D02*
X507060D01*
X507580Y1069480D01*
G01X605880Y1465580D02*
X605550Y1465910D01*
X489970D01*
X448220Y1507660D01*
Y1603740D01*
X180120Y1871840D01*
X140120D01*
G01X244820Y1467000D02*
X142300D01*
X140880Y1465580D01*
G01X329900Y1876170D02*
X438820Y1767250D01*
X504210D01*
X605880Y1665580D01*
G01X140120Y2171840D02*
Y2112920D01*
G01X701750Y2023070D02*
Y1924810D01*
G01X510120Y2171840D02*
X700520D01*
X701750Y2173070D01*
G01X1821160Y1355380D02*
Y1245380D01*
G01X2059730Y1287390D02*
X1991740Y1355380D01*
X1821160D01*
G01X2059710Y1471260D02*
X1954740D01*
X1948860Y1465380D01*
X1821160D01*
G01X2015000Y2393980D02*
Y1837740D01*
G01X2302060Y2250570D02*
Y2132950D01*
X2241940Y2072830D01*
Y2064520D01*
G01X2302060Y2400570D02*
X2400780D01*
G01X2511690Y2400380D02*
X2615200D01*
X324550Y768010D03*
X322580Y919480D03*
X375820Y1070000D03*
X140880Y1665580D03*
X373290Y1431800D03*
X244820Y1467000D03*
X140880Y1265580D03*
X325120Y2021840D03*
X329900Y1876170D03*
X140120Y2112920D03*
Y1871840D03*
X800080Y847680D03*
X605880Y1665580D03*
Y1265580D03*
X701750Y1924810D03*
X510120Y2171840D03*
X1081980Y1277120D03*
X967260Y1439130D03*
X1144680Y1277120D03*
X1011590Y1483480D03*
X1219200Y2223700D03*
X1112220Y2134740D03*
X1403980Y468370D03*
X1553980D03*
X1625600Y1839550D03*
X1384300Y2223700D03*
X1350400Y2134710D03*
X2094590Y336370D03*
X1821160Y700380D03*
X2059730Y1287390D03*
X2059710Y1471260D03*
X1883870Y1705310D03*
X2015000Y1837740D03*
X1907670Y2015680D03*
X2015000Y2393980D03*
X2166340Y305020D03*
X2234780Y319760D03*
X2296130Y306770D03*
X2240530Y62270D03*
X2358010Y316930D03*
X2313000Y63560D03*
X2379960Y61620D03*
X2445150Y64200D03*
X2413590Y355210D03*
X2483590D03*
X2241940Y2064520D03*
X2400780Y2400570D03*
X2567620Y357150D03*
X2613690Y304440D03*
X2676670Y65270D03*
X2771160Y1570380D03*
Y1355380D03*
X2831770Y2060370D03*
X2951770Y2055370D03*
X2629910Y1969520D03*
X2615200Y2400380D03*
X3370600Y1152470D03*
X3370580Y1618160D03*
X3331770Y2060370D03*
X3427840Y771570D03*
G54D12*
X140880Y1265580D03*
Y1665580D03*
Y1465580D03*
X605880Y1265580D03*
Y1465580D03*
Y1665580D03*
G54D21*
X3208080Y1470660D03*
G54D22*
X3370580Y1323160D03*
Y1618160D03*
G54D13*
X322580Y919480D03*
X325120Y2021840D03*
G54D23*
G01X2094590Y336370D02*
X2046890D01*
X2046850Y336330D01*
X1514320D01*
X1480590Y370060D01*
Y536170D01*
X1376110Y640650D01*
X1000660D01*
X871830Y769480D01*
X507580D01*
G01X800080Y847680D02*
Y1700120D01*
X628360Y1871840D01*
X510120D01*
G01X1081980Y1277120D02*
Y1229420D01*
X1734310Y577090D01*
X2363730D01*
X2413590Y527230D01*
Y355210D01*
G01X2483590D02*
X2449860Y388940D01*
Y547530D01*
X2387600Y609790D01*
X1754640D01*
X1144680Y1219750D01*
Y1277120D01*
G01X967260Y1439130D02*
Y1460340D01*
X963890Y1463710D01*
Y2258280D01*
X1022010Y2316400D01*
X1278950D01*
X1318100Y2277250D01*
Y2242200D01*
X1336600Y2223700D01*
X1384300D01*
G01X1011590Y1483480D02*
X1000670Y1494400D01*
Y1906090D01*
X1025090Y1930510D01*
Y1963210D01*
X1000670Y1987630D01*
Y2020330D01*
X1025090Y2044750D01*
Y2077450D01*
X1000670Y2101870D01*
Y2134570D01*
X1025090Y2158990D01*
Y2191690D01*
X1000670Y2216110D01*
Y2248810D01*
X1035560Y2283700D01*
X1265400D01*
X1285400Y2263700D01*
Y2242200D01*
X1266900Y2223700D01*
X1219200D01*
G01X1350400Y2134710D02*
X1159950D01*
X1159920Y2134740D01*
X1112220D01*
G01X1350400Y2134710D02*
X1398100D01*
X1399390Y2136000D01*
X1525260D01*
X1625600Y2035660D01*
Y1839550D01*
G01X2567620Y357150D02*
X3076210D01*
X3100850Y381790D01*
Y672540D01*
X2968010Y805380D01*
X2771160D01*
G01X2613690Y304440D02*
X3080070D01*
X3140850Y365220D01*
Y689110D01*
X2914580Y915380D01*
X2771160D01*
G01X2676670Y65270D02*
X2710400Y31540D01*
X3096800D01*
X3140970Y75710D01*
Y301140D01*
X3427840Y588010D01*
Y771570D01*
G01X2771160Y1135380D02*
X2826160D01*
X2973210Y988330D01*
Y980440D01*
X3044120D01*
G01X3037840Y1472000D02*
X2890480D01*
X2883860Y1465380D01*
X2771160D01*
G01X3208080Y1470660D02*
X3109380D01*
X3108040Y1472000D01*
X3037840D01*
G54D14*
X483000Y2353200D03*
X3352000Y293000D03*
G54D24*
G01X1553980Y468370D02*
Y546070D01*
X1381570Y718480D01*
X1030530D01*
X995530Y753480D01*
Y1309240D01*
X1253980Y1567690D01*
X1631980D01*
X1769600Y1705310D01*
X1883870D01*
G01X1907670Y2015680D02*
Y1820650D01*
X2004440Y1723880D01*
X2974230D01*
X3211770Y1961420D01*
Y2055370D01*
G01X2511940Y1969520D02*
X2629910D01*
G01X2511940Y2064520D02*
X2424240D01*
Y1874520D01*
X2511940D01*
G01X2511690Y2250380D02*
Y2124970D01*
X2511940Y2124720D01*
Y2064520D01*
G01X2511690Y2250380D02*
X2514190D01*
X2592910Y2171660D01*
X3168180D01*
X3211770Y2128070D01*
Y2055370D01*
G01X3370580Y1323160D02*
Y1207690D01*
X3370600Y1207670D01*
Y1152470D01*
G01X3187140Y1135080D02*
X3204530Y1152470D01*
X3370600D01*
G54D15*
X701750Y2023070D03*
Y2173070D03*
X2302060Y2250570D03*
Y2400570D03*
X2511690Y2250380D03*
Y2400380D03*
X3037840Y1322000D03*
Y1472000D03*
G54D25*
G01X3037140Y1135080D02*
Y1132580D01*
X3186780Y982940D01*
X3194120D01*
Y980440D01*
G01X3037140Y1135080D02*
Y1250900D01*
X3037840Y1251600D01*
Y1322000D01*
G54D16*
X1553980Y468370D03*
X1403980D03*
X3044120Y980440D03*
X3194120D03*
X3037140Y1135080D03*
X3187140D03*
G54D17*
X1821160Y805380D03*
Y700380D03*
Y1245380D03*
Y1135380D03*
Y1025380D03*
Y915380D03*
Y1465380D03*
Y1355380D03*
Y1570380D03*
X2771160Y805380D03*
Y700380D03*
Y915380D03*
Y1025380D03*
Y1135380D03*
Y1245380D03*
Y1355380D03*
Y1465380D03*
Y1570380D03*
G54D18*
X2241940Y2064520D03*
Y1874520D03*
X2511940D03*
Y1969520D03*
Y2064520D03*
G54D19*
X2951770Y2055370D03*
X3211770D03*
X3146770D03*
X3081770D03*
X3016770D03*
M02*
