M48
METRIC,TZ
T01C2.
T02C.3
T03C1.
;LEADER: 12 
;HEADER: 
;CODE  : ASCII 
;FILE  : TBagCoreBoard-1-2.drl for board #Taaaaag10140.tmp ... layers TOP and BOTTOM
;T01 Holesize 1. = 2.000000 Tolerance = +0.000000/-0.000000 PLATED MM Quantity = 2
;T02 Holesize 2. = 0.300000 Tolerance = +0.000000/-0.000000 NON_PLATED MM Quantity = 60
;T03 Holesize 3. = 1.000000 Tolerance = +0.000000/-0.000000 NON_PLATED MM Quantity = 2
%
G90
T01
X3352000Y293000
X483000Y2353200
T02
X324550Y768010
X322580Y919480
X375820Y1070000
X140880Y1265580
X605880
X373290Y1431800
X244820Y1467000
X605880Y1665580
X140880
X140120Y1871840
X329900Y1876170
X701750Y1924810
X325120Y2021840
X140120Y2112920
X510120Y2171840
X1384300Y2223700
X1219200
X1350400Y2134710
X1112220Y2134740
X1011590Y1483480
X967260Y1439130
X1144680Y1277120
X1081980
X800080Y847680
X1403980Y468370
X2240530Y62270
X2166340Y305020
X2234780Y319760
X2094590Y336370
X1553980Y468370
X1821160Y700380
X2059730Y1287390
X2059710Y1471260
X1883870Y1705310
X1625600Y1839550
X2015000Y1837740
X1907670Y2015680
X2241940Y2064520
X2015000Y2393980
X2400780Y2400570
X2615200Y2400380
X2831770Y2060370
X2951770Y2055370
X2629910Y1969520
X2771160Y1570380
Y1355380
X2567620Y357150
X2413590Y355210
X2483590
X2358010Y316930
X2296130Y306770
X2613690Y304440
X2676670Y65270
X2445150Y64200
X2313000Y63560
X2379960Y61620
X3427840Y771570
X3370600Y1152470
X3370580Y1618160
X3331770Y2060370
T03
X2706770Y2310370
X3456770
M30
