G04 ================== begin FILE IDENTIFICATION RECORD ==================*
G04 Layout Name:  D:/works/projects/TBag/cadence/TBagCoreBoard.brd*
G04 Film Name:    TOP*
G04 File Format:  Gerber RS274X*
G04 File Origin:  Cadence Allegro 16.6-P004*
G04 Origin Date:  Mon Mar 02 00:06:36 2015*
G04 *
G04 Layer:  ETCH/TOP*
G04 Layer:  PIN/TOP*
G04 Layer:  VIA CLASS/TOP*
G04 *
G04 Offset:    (0.0000 0.0000)*
G04 Mirror:    No*
G04 Mode:      Positive*
G04 Rotation:  0*
G04 FullContactRelief:  No*
G04 UndefLineWidth:     0.3000*
G04 ================== end FILE IDENTIFICATION RECORD ====================*
%FSLAX35Y35*MOMM*%
%IR0*IPPOS*OFA0.00000B0.00000*MIA0B0*SFA1.00000B1.00000*%
%ADD16R,.2X1.14*%
%ADD19R,1.15X.6*%
%ADD10C,.5*%
%ADD18R,.2X.3*%
%ADD15R,.3X.2*%
%ADD13C,2.*%
%ADD20C,1.2*%
%ADD21R,.5X.35*%
%ADD11R,.95X.9*%
%ADD14R,.9X.95*%
%ADD12R,.85X.85*%
%AMMACRO17*
4,1,5,-.85,-.77,
-.85,.4717,
-.5517,.77,
.85,.77,
.85,-.77,
-.85,-.77,
0.0*
%
%ADD17MACRO17*%
%ADD22C,.1*%
%ADD23C,.2*%
%ADD24C,.35*%
%ADD25C,.127*%
%ADD27C,.7544*%
%ADD26R,1.6044X1.0544*%
%ADD28C,1.4544*%
G75*
%LPD*%
G75*
G36*
G01X3116140Y34140D02*
X3164780Y82780D01*
Y280200D01*
X3197640Y313070D01*
G02X3231770Y298080I14146J-14142D01*
G03X3346920Y413230I120230J-5080D01*
G02X3331930Y447360I-848J19984D01*
G01X3371550Y486970D01*
X3415310D01*
X3481160Y552820D01*
Y591430D01*
X3491080Y601350D01*
X3529920D01*
Y876790D01*
X3434480D01*
Y819170D01*
G02X3425180Y809200I-9999J4D01*
G03X3401530Y744540I2659J-37628D01*
G01X3401580Y744490D01*
X3408700Y737370D01*
X3386990Y715660D01*
G02X3369920Y722730I-7071J7070D01*
G01Y876790D01*
X3262040D01*
Y888340D01*
X2976600D01*
Y732770D01*
X2976290D01*
Y605240D01*
X2939010D01*
X2917160Y627090D01*
X1882010D01*
X1852330Y597410D01*
X1812260Y637480D01*
X1637730D01*
X1475470Y799740D01*
Y1220470D01*
X1158120Y1537820D01*
Y1616410D01*
X1344390D01*
Y1615570D01*
X1629830D01*
Y1772440D01*
X1695820D01*
Y2022170D01*
G02X1729960Y2036310I20000J-3D01*
G01X1733070Y2033200D01*
Y1804640D01*
X1873510D01*
Y1975460D01*
X1907670D01*
G03Y2055900I0J40220D01*
G01X1873510D01*
Y2090080D01*
X1789950D01*
X1764400Y2115630D01*
Y2196670D01*
X1775790Y2208060D01*
Y2380420D01*
X1722010Y2434200D01*
X1707350D01*
Y2446700D01*
X1546910D01*
Y2151260D01*
X1683960D01*
Y2082310D01*
X1691320Y2074950D01*
G02X1684250Y2057880I-7072J-7070D01*
G01X1555380D01*
Y1880580D01*
X1533840D01*
Y2040580D01*
X1526540D01*
Y2073280D01*
X1493840D01*
Y2120580D01*
X1395260D01*
Y2130960D01*
X1395290Y2131330D01*
G03X1395410Y2135590I-44890J3396D01*
G02X1415410Y2155980I19996J390D01*
G01X1454520D01*
Y2441420D01*
X1314080D01*
Y2413920D01*
X1289420D01*
Y2441420D01*
X1148980D01*
Y2422160D01*
X1120320D01*
X1072000Y2373840D01*
Y1756850D01*
X1050180D01*
Y1616410D01*
X1077680D01*
Y1504500D01*
X1395030Y1187150D01*
Y766420D01*
X1600080Y561370D01*
X1594970Y549020D01*
X1592980D01*
Y508390D01*
X1553980D01*
G03X1543980Y507120I2J-40020D01*
G02X1518990Y526490I-4990J19367D01*
G01Y553080D01*
X1389460Y682610D01*
X1021750D01*
X828380Y875980D01*
G03X771780Y819380I-28300J-28300D01*
G01X967000Y624160D01*
G02X952860Y590020I-14142J-14141D01*
G01X0D01*
Y2500200D01*
X3550000D01*
Y0D01*
X3130280D01*
G02X3116140Y34140I2J19999D01*
G37*
G36*
G01X1310020Y0D02*
Y602570D01*
X1356300D01*
X1438950Y519920D01*
Y372700D01*
X1506750Y304900D01*
X1632980D01*
Y277720D01*
X1600280D01*
Y118280D01*
X1632980D01*
Y110980D01*
X1793020D01*
Y118280D01*
X1912980D01*
Y110980D01*
X2208500D01*
G02X2215570Y93910I0J-9999D01*
G01X2212230Y90570D01*
G03X2268830Y33970I28300J-28300D01*
G01X2277410Y42550D01*
X2284500Y35460D01*
X2284530Y35440D01*
G03X2338930Y33070I28477J28119D01*
G02X2352310Y32690I6479J-7615D01*
G03X2407240Y32340I27650J28931D01*
G02X2420270Y32850I6812J-7320D01*
G03X2473450Y92500I24880J31350D01*
G01X2472040Y93910D01*
G02X2479110Y110980I7070J7071D01*
G01X2632980D01*
Y52360D01*
X2648370Y36970D01*
G03X2703680Y35740I28298J28300D01*
G02X2717090Y35820I6749J-7381D01*
G03X2721920Y32120I26681J29827D01*
G01X2723730Y30950D01*
X2737600Y17070D01*
G02X2730530Y0I-7070J-7071D01*
G01X1310020D01*
G37*
%LPC*%
G75*
G36*
G01X1977350Y2346260D02*
Y2341260D01*
X1816910D01*
Y2446700D01*
X1977350D01*
Y2441700D01*
X2015000D01*
G02Y2346260I0J-47720D01*
G01X1977350D01*
G37*
G36*
G01X265340Y1771070D02*
Y1873240D01*
X201270Y1937310D01*
G03X167130Y1923170I-14141J-14141D01*
G01Y1912320D01*
X173860Y1905580D01*
G02X106380Y1838100I-33740J-33740D01*
G01X57720Y1886750D01*
X26690D01*
Y2172190D01*
X167130D01*
Y2152260D01*
G02X173860Y2146660I-27028J-39326D01*
G01X272510Y2048020D01*
Y2001050D01*
X363640Y1909910D01*
G02X370340Y1901510I-33719J-33767D01*
G01X395780D01*
Y1771070D01*
X265340D01*
G37*
G36*
G01X1049260Y1296030D02*
Y1310860D01*
X957500Y1402620D01*
X955270Y1403370D01*
G02X964670Y1476760I11994J35761D01*
G03X973960Y1486050I-687J9977D01*
G02X1047350Y1495470I37630J-2575D01*
G01X1048100Y1493240D01*
X1177400Y1363940D01*
Y1296030D01*
X1178450Y1293930D01*
G02X1119900Y1248680I-33768J-16812D01*
G03X1106760I-6570J-7537D01*
G02X1048210Y1293930I-24782J28438D01*
G01X1049260Y1296030D01*
G37*
G36*
G01X210960Y957760D02*
Y1020710D01*
X176560Y1055120D01*
X164210Y1050000D01*
Y1047760D01*
X23770D01*
Y1333200D01*
X164210D01*
Y1295220D01*
G02Y1235940I-23330J-29640D01*
G01Y1163200D01*
X203450D01*
X278450Y1088200D01*
X326530D01*
X342080Y1103740D01*
G02X409560Y1036260I33740J-33740D01*
G01X348570Y975260D01*
X341400D01*
Y957760D01*
X210960D01*
G37*
G36*
G01X291770Y1423200D02*
X297200D01*
X369910Y1495910D01*
Y1497100D01*
X572140Y1699320D01*
G02X639620Y1631840I33740J-33740D01*
G01X465350Y1457560D01*
Y1456370D01*
X421010Y1412030D01*
Y1374900D01*
X457490Y1338420D01*
X675440D01*
Y1197980D01*
X653600D01*
Y1032080D01*
X416610Y795090D01*
Y792580D01*
X358290Y734270D01*
G02X290810Y801750I-33740J33740D01*
G01X321170Y832120D01*
Y834630D01*
X558160Y1071620D01*
Y1197980D01*
X390000D01*
Y1270930D01*
X358470Y1302460D01*
G03X341400Y1295390I-7071J-7070D01*
G01Y1292760D01*
X210960D01*
Y1433370D01*
G02X197100Y1467000I33870J33630D01*
G01Y1487650D01*
X668010Y1958550D01*
G02X735490Y1891070I33740J-33740D01*
G01X284700Y1440270D01*
G03X291770Y1423200I7070J-7071D01*
G37*
G36*
G01X395780Y2106070D02*
X265340D01*
Y2236510D01*
X395780D01*
Y2219560D01*
X451750D01*
Y2236770D01*
X444910Y2239050D01*
G02X538120Y2246230I38088J114151D01*
G03X536310Y2211730I9164J-17778D01*
G02X510120Y2124120I-26190J-39890D01*
G01X431080D01*
X430530Y2123570D01*
X395780D01*
Y2106070D01*
G37*
G36*
G01X2277450Y1217170D02*
X1992010D01*
Y1357610D01*
X2011990D01*
Y1401040D01*
X1991990D01*
Y1541480D01*
X2011990D01*
Y1576230D01*
X2066420Y1630660D01*
Y1797540D01*
X2049240Y1804510D01*
G02X2048740Y1804000I-34322J33149D01*
G01X1923580Y1678840D01*
X1923070Y1678100D01*
G02X1836150Y1705310I-39201J27210D01*
G01Y1726380D01*
X1981260Y1871480D01*
G02X2037140Y1880010I33742J-33741D01*
G03X2066420Y1897730I9279J17718D01*
G01Y1956490D01*
X2208200Y2098260D01*
G02X2275680Y2030780I33740J-33740D01*
G01X2161860Y1916950D01*
Y1591120D01*
X2146360Y1575620D01*
G03X2160500Y1541480I14141J-14141D01*
G01X2277430D01*
Y1401040D01*
X2107450D01*
Y1357610D01*
X2277450D01*
Y1217170D01*
G37*
G54D27*
X2831770Y2060370D03*
X3331770D03*
G54D26*
X1897130Y2203980D03*
G54D28*
X2706770Y2310370D03*
X3456770D03*
%LPD*%
G75*
G54D10*
G01X324550Y768010D02*
X368890Y812350D01*
Y814860D01*
X605880Y1051850D01*
Y1265580D01*
G01X93990Y1115480D02*
X183680D01*
X276180Y1022980D01*
G01D02*
X328800D01*
X375820Y1070000D01*
G01X373290Y1431800D02*
X417630Y1476140D01*
Y1477330D01*
X605880Y1665580D01*
G01X276180Y1357980D02*
X299470D01*
X373290Y1431800D01*
G01X457720Y1268200D02*
Y1270700D01*
X373290Y1355130D01*
Y1431800D01*
G01X701750Y1924810D02*
X244820Y1467880D01*
Y1467000D01*
G01X140120Y2112920D02*
X224790Y2028250D01*
Y1981280D01*
X329900Y1876170D01*
G01X96910Y1954470D02*
Y1915050D01*
X140120Y1871840D01*
G01X510120Y2171840D02*
X411310D01*
X410760Y2171290D01*
X330560D01*
G01X1511620Y2297090D02*
X1513510Y2298980D01*
G01D02*
X1627130D01*
G01X2059710Y1471260D02*
Y1372610D01*
X2059730Y1372590D01*
Y1287390D01*
G01X2059710Y1471260D02*
Y1556460D01*
X2114140Y1610890D01*
Y1936720D01*
X2241940Y2064520D01*
G01X2015000Y1837740D02*
X1883870Y1706610D01*
Y1705310D01*
G01X1897130Y2393980D02*
X2015000D01*
G01X2209300Y1196100D02*
X2209730Y1196530D01*
G01D02*
Y1287390D01*
G01X2209710Y1471260D02*
Y1551480D01*
G01X2209730Y1287390D02*
X2287450D01*
G01X2302530Y1468700D02*
X2299970Y1471260D01*
G01X2209730Y1287390D02*
Y1391020D01*
G01D02*
X2209710Y1391040D01*
G01D02*
Y1471260D01*
G01X2299970D02*
X2209710D01*
X324550Y768010D03*
X322580Y919480D03*
X375820Y1070000D03*
X140880Y1665580D03*
X373290Y1431800D03*
X244820Y1467000D03*
X140880Y1265580D03*
X325120Y2021840D03*
X329900Y1876170D03*
X140120Y2112920D03*
Y1871840D03*
X800080Y847680D03*
X605880Y1665580D03*
Y1265580D03*
X701750Y1924810D03*
X510120Y2171840D03*
X1081980Y1277120D03*
X967260Y1439130D03*
X1144680Y1277120D03*
X1011590Y1483480D03*
X1219200Y2223700D03*
X1112220Y2134740D03*
X1403980Y468370D03*
X1553980D03*
X1625600Y1839550D03*
X1384300Y2223700D03*
X1350400Y2134710D03*
X2094590Y336370D03*
X1821160Y700380D03*
X2059730Y1287390D03*
X2059710Y1471260D03*
X1883870Y1705310D03*
X2015000Y1837740D03*
X1907670Y2015680D03*
X2015000Y2393980D03*
X2166340Y305020D03*
X2234780Y319760D03*
X2296130Y306770D03*
X2240530Y62270D03*
X2358010Y316930D03*
X2313000Y63560D03*
X2379960Y61620D03*
X2445150Y64200D03*
X2413590Y355210D03*
X2483590D03*
X2241940Y2064520D03*
X2400780Y2400570D03*
X2567620Y357150D03*
X2613690Y304440D03*
X2676670Y65270D03*
X2771160Y1570380D03*
Y1355380D03*
X2831770Y2060370D03*
X2951770Y2055370D03*
X2629910Y1969520D03*
X2615200Y2400380D03*
X3370600Y1152470D03*
X3370580Y1618160D03*
X3331770Y2060370D03*
X3427840Y771570D03*
G54D11*
X93990Y1115480D03*
Y1265480D03*
X96910Y1954470D03*
Y2104470D03*
X1219200Y2223700D03*
Y2373700D03*
X1625600Y1990160D03*
Y1840160D03*
X1384300Y2223700D03*
Y2373700D03*
X1803290Y2022360D03*
Y1872360D03*
G54D20*
X2706770Y2310370D03*
X3456770D03*
G54D12*
X276180Y1022980D03*
Y1357980D03*
X330560Y1836290D03*
Y2171290D03*
G54D21*
X3322200Y771570D03*
Y706570D03*
Y641570D03*
Y836570D03*
X3482200Y641570D03*
Y706570D03*
Y771570D03*
Y836570D03*
G54D22*
G01X1293820Y1805560D02*
Y1780560D01*
G01X1633000Y108280D02*
Y198000D01*
G01X1590280D02*
X1633000D01*
G01X1513820Y2040560D02*
X1488820D01*
G01X1333820Y1805560D02*
Y1780560D01*
G01X1413820Y1805560D02*
Y1780560D01*
G01X1513820Y1840560D02*
X1488820D01*
G54D13*
X483000Y2353200D03*
X3352000Y293000D03*
G54D23*
G01X2073000Y462000D02*
Y392570D01*
X2055430Y375000D01*
X2017290D01*
X1987210Y344920D01*
X1523330D01*
X1478970Y389280D01*
Y536500D01*
X1372880Y642590D01*
X1005170D01*
X800080Y847680D01*
G01X967260Y1439130D02*
X1081980Y1324410D01*
Y1277120D01*
G01X1144680D02*
Y1350390D01*
X1011590Y1483480D01*
G01X1219200Y2223700D02*
Y2115180D01*
X1253820Y2080560D01*
Y2075560D01*
G01X1293820Y1780560D02*
Y1772860D01*
X1281520Y1760560D01*
X1189330D01*
X1117900Y1689130D01*
G01X1633000Y462000D02*
X1673000D01*
G01X1553980Y468370D02*
X1626630D01*
X1633000Y462000D01*
G01X1293820Y2075560D02*
Y2203420D01*
X1314100Y2223700D01*
X1384300D01*
G01X1412110Y1685790D02*
Y1725690D01*
X1373820Y1763980D01*
Y1805560D01*
G01X1539380Y2040560D02*
X1513820D01*
G01X1333820Y1780560D02*
Y1752550D01*
X1267900Y1686630D01*
G01X1413820Y1780560D02*
Y1772860D01*
X1426120Y1760560D01*
X1489840D01*
X1562110Y1688290D01*
Y1685790D01*
G01X1413820Y2133390D02*
Y2075560D01*
G01X1333820D02*
Y2124320D01*
X1344210Y2134710D01*
X1350400D01*
G01X1625600Y1840160D02*
X1546000D01*
X1545600Y1840560D01*
X1513820D01*
G01X1625600Y1840160D02*
Y1839550D01*
G01X1413520Y2133690D02*
X1413820Y2133390D01*
G01X1833210Y108340D02*
X1833000Y108550D01*
G01X1872420Y108340D02*
X1873000Y108920D01*
G01X1912930Y107050D02*
X1913000Y107120D01*
G01X1712990Y103840D02*
X1713000Y103850D01*
G01X1792060Y105120D02*
X1793000Y106060D01*
G01X1833000Y108550D02*
Y198000D01*
G01X1873000Y108920D02*
Y198000D01*
G01X1913000Y107120D02*
Y198000D01*
G01X1713000Y103850D02*
Y198000D01*
G01X1793000Y106060D02*
Y198000D01*
G01X2094590Y336370D02*
Y357590D01*
X2113000Y376000D01*
Y462000D01*
G01X1673000D02*
X1713000D01*
G01X3194010Y662550D02*
Y660050D01*
X3106480Y572520D01*
X2925460D01*
X2903610Y594370D01*
X1895560D01*
X1863410Y562220D01*
X1830640D01*
G01D02*
X1833000Y559860D01*
Y462000D01*
G01X1803290Y1794640D02*
Y1872360D01*
G01X1723070D02*
X1803290D01*
G01D02*
X1883510D01*
G01X2273000Y198000D02*
Y94740D01*
X2240530Y62270D01*
G01X2313000Y198000D02*
Y63560D01*
G01X2353000Y198000D02*
Y91030D01*
X2360700Y83330D01*
Y80880D01*
X2379960Y61620D01*
G01X2393000Y198000D02*
Y116350D01*
X2445150Y64200D01*
G01X2413590Y355210D02*
Y297110D01*
X2433000Y277700D01*
Y198000D01*
G01X2483590Y355210D02*
Y312500D01*
X2475480Y299410D01*
X2473000Y296920D01*
Y198000D01*
G01X2567620Y357150D02*
X2533890Y323420D01*
Y304890D01*
X2513000Y284000D01*
Y198000D01*
G01X2613690Y304440D02*
X2590010D01*
X2553000Y267430D01*
Y198000D01*
G01X2676670Y65270D02*
X2673000Y68940D01*
Y198000D01*
G01X2713000D02*
Y96410D01*
X2743740Y65670D01*
X2744970Y64870D01*
X2746210Y64050D01*
X2749230Y62040D01*
X2752820Y58450D01*
X3083850D01*
X3124760Y99360D01*
Y296780D01*
X3354970Y526990D01*
X3398730D01*
X3441140Y569400D01*
Y608010D01*
X3474700Y641570D01*
X3482200D01*
G01X2793000Y198000D02*
Y267430D01*
X2816480Y290910D01*
Y304450D01*
X2806890Y314040D01*
X2793350D01*
X2786930Y307620D01*
X2773390D01*
X2763800Y317210D01*
Y330750D01*
X2793350Y360300D01*
X2806890D01*
X2839600Y327590D01*
X2886110D01*
X2895690Y337170D01*
Y357900D01*
X2905270Y367480D01*
X2918810D01*
X2928390Y357900D01*
Y337170D01*
X2937970Y327590D01*
X2951510D01*
X2961090Y337170D01*
Y357900D01*
X2970670Y367480D01*
X2984210D01*
X2993790Y357900D01*
Y337170D01*
X3003370Y327590D01*
X3036070D01*
X3059220Y350740D01*
Y364280D01*
X3051200Y372290D01*
Y385830D01*
X3060790Y395420D01*
X3074330D01*
X3082350Y387410D01*
X3095890D01*
X3105480Y397000D01*
Y410540D01*
X3097460Y418550D01*
Y432090D01*
X3107050Y441680D01*
X3120590D01*
X3128610Y433670D01*
X3142150D01*
X3151740Y443260D01*
Y456800D01*
X3143720Y464810D01*
Y478350D01*
X3153310Y487940D01*
X3166850D01*
X3174870Y479930D01*
X3188410D01*
X3198000Y489520D01*
Y503060D01*
X3189980Y511070D01*
Y524610D01*
X3199570Y534200D01*
X3213110D01*
X3221130Y526190D01*
X3234670D01*
X3244260Y535780D01*
Y549320D01*
X3236240Y557330D01*
Y570870D01*
X3245830Y580460D01*
X3259370D01*
X3267390Y572450D01*
X3280930D01*
X3307360Y598880D01*
Y612420D01*
X3303230Y616550D01*
Y630090D01*
X3314700Y641570D01*
X3322200D01*
G01X3482200Y706570D02*
X3434500D01*
X3405180Y677250D01*
Y579690D01*
X3385180Y559690D01*
X3316930D01*
X3092060Y334820D01*
Y112910D01*
X3070300Y91150D01*
X2780150D01*
X2753000Y118300D01*
Y198000D01*
G01X3378360Y771170D02*
X3377960Y771570D01*
G01D02*
X3322200D01*
G01X3194010Y662550D02*
X3268570D01*
X3287790Y681770D01*
X3297400D01*
X3322200Y706570D01*
G01X3194320Y818120D02*
X3303750D01*
X3322200Y836570D01*
G01X3482200Y771570D02*
X3427840D01*
G01X3424480Y836570D02*
X3482200D01*
G01D02*
X3539920D01*
G54D14*
X607720Y1268200D03*
X457720D03*
X1267900Y1686630D03*
X1117900D03*
X1562110Y1685790D03*
X1412110D03*
X2059710Y1471260D03*
X2059730Y1287390D03*
X2209710Y1471260D03*
X2209730Y1287390D03*
X3044320Y818120D03*
X3194320D03*
X3044010Y662550D03*
X3194010D03*
G54D24*
G01X1117900Y1686630D02*
Y1521160D01*
X1435250Y1203810D01*
Y783080D01*
X1621070Y597260D01*
X1795600D01*
X1830640Y562220D01*
G01X1117900Y1689130D02*
Y1686630D01*
G01X1112220Y2134740D02*
Y1694810D01*
X1117900Y1689130D01*
G01X1219200Y2373700D02*
X1384300D01*
G01X1219200D02*
X1210960Y2381940D01*
X1136980D01*
X1112220Y2357180D01*
Y2134740D01*
G01X1307760Y1584340D02*
X1267900Y1624200D01*
Y1686630D01*
G01X1562110Y1685790D02*
Y1605570D01*
G01Y1685790D02*
X1639830D01*
G01X1625600Y1990160D02*
X1705820D01*
G01X1625600D02*
X1545380D01*
G01X1714830Y2203980D02*
X1735570Y2224720D01*
Y2363760D01*
X1705350Y2393980D01*
X1627130D01*
G01X1714830Y2203980D02*
X1627130D01*
G01X1803290Y2022360D02*
X1800790D01*
X1724180Y2098970D01*
Y2194630D01*
X1714830Y2203980D01*
G01X1907670Y2015680D02*
X1809970D01*
X1803290Y2022360D01*
G01X2711420Y18070D02*
X3131960D01*
G01X3044320Y818120D02*
Y898340D01*
G01Y818120D02*
X2966600D01*
G01X3044010Y662550D02*
X2966290D01*
G01X3194320Y818120D02*
Y662860D01*
X3194010Y662550D01*
G01X3482200Y836570D02*
Y886790D01*
G54D15*
X1218820Y1840560D03*
Y1880560D03*
Y1920560D03*
Y1960560D03*
Y2000560D03*
Y2040560D03*
X1488820D03*
Y2000560D03*
Y1960560D03*
Y1920560D03*
Y1880560D03*
Y1840560D03*
G54D25*
G01X2153000Y462000D02*
Y341530D01*
X2166340Y328190D01*
Y305020D01*
G01X2234780Y319760D02*
X2193000Y361540D01*
Y462000D01*
G01X2296130Y306770D02*
Y331040D01*
X2233000Y394170D01*
Y462000D01*
G01X2273000D02*
X2276650Y458350D01*
Y398870D01*
X2358010Y317510D01*
Y316930D01*
G54D16*
X1673000Y198000D03*
X1633000D03*
X1673000Y462000D03*
X1633000D03*
X2073000Y198000D03*
X2033000D03*
X1993000D03*
X1953000D03*
X1913000D03*
X1873000D03*
X1833000D03*
X1793000D03*
X1753000D03*
X1713000D03*
X2073000Y462000D03*
X2033000D03*
X1993000D03*
X1953000D03*
X1913000D03*
X1873000D03*
X1833000D03*
X1793000D03*
X1753000D03*
X1713000D03*
X2513000Y198000D03*
X2473000D03*
X2433000D03*
X2393000D03*
X2353000D03*
X2313000D03*
X2273000D03*
X2233000D03*
X2193000D03*
X2153000D03*
X2113000D03*
X2513000Y462000D03*
X2473000D03*
X2433000D03*
X2393000D03*
X2353000D03*
X2313000D03*
X2273000D03*
X2233000D03*
X2193000D03*
X2153000D03*
X2113000D03*
X2953000Y198000D03*
X2913000D03*
X2873000D03*
X2833000D03*
X2793000D03*
X2753000D03*
X2713000D03*
X2673000D03*
X2633000D03*
X2593000D03*
X2553000D03*
X2953000Y462000D03*
X2913000D03*
X2873000D03*
X2833000D03*
X2793000D03*
X2753000D03*
X2713000D03*
X2673000D03*
X2633000D03*
X2593000D03*
X2553000D03*
X2993000Y198000D03*
Y462000D03*
G54D17*
X1352820Y1940560D03*
G54D18*
X1253820Y2075560D03*
X1293820D03*
X1333820D03*
X1373820D03*
X1413820D03*
X1453820D03*
Y1805560D03*
X1413820D03*
X1373820D03*
X1333820D03*
X1293820D03*
X1253820D03*
G54D19*
X1627130Y2203980D03*
Y2298980D03*
Y2393980D03*
X1897130D03*
Y2203980D03*
M02*
